<svg width="59" height="41" viewBox="0 0 59 41" fill="none" xmlns="http://www.w3.org/2000/svg">
<path d="M53.4922 18.4377V20.2658H54.1398C54.8213 20.2658 55.3573 20.0065 55.3573 19.3105C55.3573 18.8505 55.1352 18.4357 54.2751 18.4357C54.0071 18.4357 53.8608 18.4258 53.4922 18.4377ZM51.7051 24.8972V16.6445C52.1406 16.6445 54.1398 16.6445 54.3633 16.6445C56.4966 16.6445 57.256 17.7653 57.256 19.2869C57.256 20.8204 56.3626 21.4455 55.9381 21.6697L58.198 24.8972H56.0311L54.151 22.0353H53.4922V24.8972H51.7051Z" fill="#744E43"/>
<path d="M38.5108 40.6346H0.0351562V0H38.5108V13.9037H36.7272V1.88368H1.81876V38.7507H36.7272V26.6411H38.5108V40.6346Z" fill="#744E43"/>
<path d="M7.89648 16.1436H9.68342V19.7413L12.2412 16.1436H14.3856L11.4482 19.9536L14.6202 24.4007H12.353L9.68342 20.4727V24.4007H7.89648V16.1436Z" fill="#744E43"/>
<path d="M19.2808 22.6985C20.7221 22.6985 21.4698 21.6228 21.4698 20.2723C21.4698 18.8073 20.5053 17.846 19.2808 17.846C18.0236 17.846 17.0917 18.8073 17.0917 20.2723C17.0917 21.6457 18.0671 22.6985 19.2808 22.6985ZM19.2808 16.1294C21.5888 16.1294 23.312 17.7201 23.312 20.2723C23.312 22.6985 21.5888 24.4153 19.2808 24.4153C16.9727 24.4153 15.2495 22.8244 15.2495 20.2723C15.2495 17.9491 16.8642 16.1294 19.2808 16.1294Z" fill="#744E43"/>
<path d="M30.8287 24.4009L27.1207 19.4465V24.4009H25.4453V16.146H26.8749L30.5831 21.1217L30.5807 16.1463H32.256L32.2584 24.4009H30.8287Z" fill="#744E43"/>
<path d="M34.4092 16.1436H40.8872V17.913H38.5416V24.4007H36.7545V17.913H34.4092V16.1436Z" fill="#744E43"/>
<path d="M49.5574 20.8494C49.5574 23.3739 48.0384 24.4001 46.3632 24.4001C44.3528 24.4001 42.9565 23.1849 42.9565 20.767V16.1475H44.7436V20.3659C44.7436 21.6516 45.1122 22.6307 46.3632 22.6307C47.4465 22.6307 47.7704 21.7932 47.7704 20.4719V16.1475H49.5574V20.8494Z" fill="#744E43"/>
</svg>
