<svg width="18" height="18" viewBox="0 0 18 18" fill="none" xmlns="http://www.w3.org/2000/svg">
<g clip-path="url(#clip0)">
<path d="M1.72764 6.28804C1.95534 6.44871 2.64171 6.92592 3.78677 7.71941C4.93188 8.51291 5.8091 9.12387 6.41849 9.55236C6.48544 9.59932 6.62768 9.70142 6.84528 9.85879C7.06292 10.0163 7.24375 10.1435 7.38765 10.2406C7.53165 10.3376 7.70573 10.4465 7.91006 10.567C8.11433 10.6874 8.30688 10.7779 8.48768 10.8379C8.66852 10.8983 8.83591 10.9283 8.9899 10.9283H9H9.01013C9.16412 10.9283 9.33159 10.8983 9.51242 10.8379C9.69315 10.7779 9.88588 10.6873 10.09 10.567C10.2942 10.4463 10.4682 10.3376 10.6122 10.2406C10.7562 10.1435 10.9369 10.0163 11.1546 9.85879C11.3722 9.70128 11.5146 9.59932 11.5816 9.55236C12.1975 9.12387 13.7647 8.03566 16.2824 6.28783C16.7712 5.94646 17.1796 5.53455 17.5077 5.05238C17.836 4.57042 18 4.06482 18 3.53586C18 3.09384 17.8409 2.71545 17.5228 2.40075C17.2047 2.08598 16.8279 1.92868 16.3928 1.92868H1.60708C1.09148 1.92868 0.694703 2.10276 0.416801 2.45092C0.138934 2.79915 0 3.23442 0 3.7567C0 4.17856 0.184213 4.63572 0.552462 5.12788C0.920676 5.62007 1.31253 6.00683 1.72764 6.28804Z" fill="#EDAF03"/>
<path d="M16.9954 7.3627C14.7992 8.84917 13.1316 10.0044 11.9933 10.8282C11.6116 11.1093 11.302 11.3288 11.0642 11.486C10.8264 11.6434 10.5102 11.8041 10.115 11.9681C9.71998 12.1323 9.35184 12.2142 9.01026 12.2142H9.00002H8.98992C8.64841 12.2142 8.28006 12.1323 7.88504 11.9681C7.49001 11.8041 7.17355 11.6434 6.93583 11.486C6.69817 11.3288 6.38843 11.1093 6.00678 10.8282C5.10271 10.1653 3.43868 9.00995 1.01461 7.3627C0.632817 7.1084 0.294648 6.81692 0 6.48885V14.4641C0 14.9063 0.157298 15.2845 0.472071 15.5992C0.786773 15.9141 1.16519 16.0714 1.60718 16.0714H16.3929C16.8348 16.0714 17.2132 15.9141 17.5279 15.5992C17.8428 15.2844 18 14.9063 18 14.4641V6.48885C17.712 6.81013 17.3773 7.10161 16.9954 7.3627Z" fill="#EDAF03"/>
</g>
<defs>
<clipPath id="clip0">
<rect width="18" height="18" fill="white"/>
</clipPath>
</defs>
</svg>
