<svg width="18" height="18" viewBox="0 0 18 18" fill="none" xmlns="http://www.w3.org/2000/svg">
<g clip-path="url(#clip0)">
<path d="M17.9612 13.9467C17.9103 13.7933 17.5864 13.5673 16.9897 13.2693C16.8281 13.1754 16.5977 13.0477 16.2997 12.8857C16.0014 12.7238 15.7307 12.5745 15.4879 12.4382C15.2447 12.3018 15.0168 12.1697 14.8039 12.0421C14.7699 12.0165 14.6634 11.942 14.4844 11.8182C14.3052 11.6947 14.1542 11.603 14.0304 11.5433C13.9068 11.4838 13.7853 11.4539 13.666 11.4539C13.4956 11.4539 13.2827 11.5754 13.0271 11.8182C12.7715 12.0612 12.5371 12.3252 12.3241 12.611C12.1111 12.8966 11.8852 13.1606 11.6468 13.4035C11.4081 13.6465 11.2119 13.7679 11.0587 13.7679C10.9818 13.7679 10.8859 13.7465 10.7709 13.7042C10.656 13.6616 10.5686 13.6251 10.5086 13.5957C10.4492 13.5656 10.3471 13.5062 10.2021 13.4164C10.0569 13.3269 9.97609 13.2778 9.95907 13.2693C8.79153 12.6214 7.7902 11.8799 6.9549 11.045C6.11986 10.2095 5.37828 9.2083 4.73059 8.04062C4.72208 8.02356 4.67296 7.94256 4.58354 7.79776C4.49399 7.65281 4.4343 7.55068 4.40448 7.49086C4.37466 7.43126 4.33844 7.34386 4.2959 7.22883C4.25336 7.1138 4.232 7.01798 4.232 6.94118C4.232 6.78787 4.35348 6.59175 4.59639 6.35309C4.83926 6.11457 5.10353 5.88863 5.38893 5.67572C5.67456 5.4628 5.93856 5.22835 6.18152 4.97277C6.42439 4.71705 6.54582 4.5041 6.54582 4.33368C6.54582 4.21444 6.516 4.09287 6.4564 3.96933C6.39676 3.84553 6.30515 3.69445 6.18152 3.51539C6.05785 3.33642 5.98329 3.22999 5.95768 3.19573C5.82998 2.98282 5.69802 2.75486 5.5615 2.51195C5.42498 2.26909 5.27596 1.99837 5.11396 1.70011C4.9521 1.40199 4.82435 1.1718 4.7305 1.00989C4.43238 0.41342 4.20657 0.0894184 4.05312 0.0384629C3.99343 0.0128956 3.90388 0 3.78469 0C3.55445 0 3.25409 0.0425375 2.88338 0.127881C2.51255 0.213091 2.22074 0.302464 2.00765 0.39636C1.58151 0.575242 1.12985 1.0951 0.652538 1.95574C0.217895 2.7567 0.000595093 3.54947 0.000595093 4.33345C0.000595093 4.56338 0.0155056 4.78708 0.0453266 5.00461C0.0751477 5.22191 0.128431 5.46697 0.205223 5.73975C0.28188 6.01243 0.343716 6.215 0.390463 6.34691C0.437254 6.47891 0.524612 6.71538 0.652494 7.05639C0.780196 7.39732 0.856987 7.60602 0.882554 7.68273C1.18081 8.51798 1.5345 9.26364 1.94353 9.91993C2.61652 11.0108 3.53492 12.1381 4.69821 13.3015C5.86155 14.4648 6.98866 15.3831 8.07959 16.0564C8.73579 16.4654 9.48171 16.819 10.3168 17.1175C10.3936 17.1429 10.6023 17.2195 10.9431 17.3477C11.284 17.4755 11.5206 17.5629 11.6526 17.6097C11.7846 17.6567 11.9872 17.7185 12.2597 17.7953C12.5327 17.8721 12.7776 17.9254 12.9949 17.9554C13.2123 17.9849 13.436 18 13.666 18C14.45 18 15.2428 17.7826 16.0439 17.348C16.9044 16.8709 17.4241 16.4191 17.6031 15.9927C17.6972 15.7798 17.7864 15.4879 17.8716 15.1171C17.9571 14.7464 17.9995 14.4461 17.9995 14.2159C17.9998 14.0962 17.9869 14.0069 17.9612 13.9467Z" fill="#F2B403"/>
</g>
<defs>
<clipPath id="clip0">
<rect width="18" height="18" fill="white"/>
</clipPath>
</defs>
</svg>
